# xmcd
#
# Track frame offsets:
#	150
#	20703
#	40615
#	56563
#	69967
#	89083
#	111117
#	127600
#	142003
#	160281
#	174826
#	189927
#	213251
#	231274
#
# Disc length: 3324 seconds
#
# Revision: 0
# Processed by: cddbd v1.5.2PL0 Copyright (c) Steve Scherf et al.
# Submitted via: EasyCDDAExtractor 12.0.0.1
#
DISCID=b70cfa0e
DTITLE=B.o.B - B.o.B Presents The Adventures Of Bobby Ray
DYEAR=2010
DGENRE=Hip-Hop
TTITLE0=Don't Let Me Fall
TTITLE1=Nothin' On You Ft. Bruno Mars
TTITLE2=Past My Shades Ft. Lupe Fiasco
TTITLE3=Airplanes Ft. Hayley Williams
TTITLE4=Bet I Ft. T.I. and Playboy Tre
TTITLE5=Ghost In The Machine
TTITLE6=The Kids Ft. Janelle Monae
TTITLE7=Magic Ft. Rivers Cuomo
TTITLE8=Fame
TTITLE9=Lovelier Than You
TTITLE10=5th Dimention Ft. Ricco Barrino
TTITLE11=Airplanes, Pt. 2 Ft. Eminem and Hayley Williams
TTITLE12=Higher (Bonus)
TTITLE13=Satellite (Bonus)
EXTD=
EXTT0=
EXTT1=
EXTT2=
EXTT3=
EXTT4=
EXTT5=
EXTT6=
EXTT7=
EXTT8=
EXTT9=
EXTT10=
EXTT11=
EXTT12=
EXTT13=
PLAYORDER=
